<svg xmlns="http://www.w3.org/2000/svg" viewBox="0 0 64 64" width="64" height="64">
  <defs>
    <linearGradient id="vg" x1="0%" y1="0%" x2="100%" y2="100%">
      <stop offset="0%" stop-color="#0891B2"/>
      <stop offset="100%" stop-color="#00D4FF"/>
    </linearGradient>
  </defs>
  <rect width="64" height="64" rx="14" fill="#0a0e17"/>
  <path d="M6 14 L14 14 L24 46 L34 14 L36 14 L36 18 L26 54 L22 54 L6 14Z" fill="url(#vg)"/>
  <path d="M34 14 L34 54 L42 54 L42 37 L49 37 L57 54 L64 54 L55 35 C59 32 62 28 62 22.5 C62 15.5 57 14 49 14 Z M42 21 L48 21 C52 21 54 23 54 26 C54 29 52 31 48 31 L42 31 Z" fill="url(#vg)"/>
</svg>
